# xmcd
#
# Track frame offsets:
#	225
#	14967
#	27591
#	42282
#	55932
#	68538
#	81685
#	92993
#	105757
#	115507
#	134849
#	147121
#	159324
#	170823
#	181001
#	197403
#
# Disc length: 2795
#
# Revision: 1
# Processed by: cddbd v1.5.1PL0 Copyright (c) Steve Scherf et al.
# Submitted via: EasyCDDAExtractor 4.6.0.1
# Normalized: r0:DSETVAR1,TDELIM( - )
#
DISCID=dd0ae810
DTITLE=Various Artist - THE BEST OF COUNTRY 1 [CD-1)
DYEAR=1996
DGENRE=Country
TTITLE0=JOHN DENVER - Take Me Home, Country Roads
TTITLE1=WILLIE NELSON - Shelter Of Your Arms
TTITLE2=DON GIPSON - I Can't Stop Loving You
TTITLE3=KENNY ROGERS - Ruby Don't Take Your Love To Town
TTITLE4=WANDA JACKSON - Crazy
TTITLE5=JOHNNY DARELL - Son Of Hickery Holler's Tramp
TTITLE6=JIM REEVES - Am I Losing You
TTITLE7=CHARLEY PRIDE - Chrystal Chandeliers
TTITLE8=JOHNNY CASH - Why Me Lord
TTITLE9=JOHN DENVER - To The Wild Country
TTITLE10=LORETTA LYNN - Me And Bobby Mc Gee
TTITLE11=RED SIMPSON - I Got A Beaver On My Lap
TTITLE12=GEOGE JONES - Talk Back Trembling Lips
TTITLE13=MERLE HAGGARD - Mama Tried
TTITLE14=LYNN ANDERSON - When I Dream
TTITLE15=G.PITNEY and G. JONES - Wreck On The Highway
EXTD=
EXTT0=
EXTT1=
EXTT2=
EXTT3=
EXTT4=
EXTT5=
EXTT6=
EXTT7=
EXTT8=
EXTT9=
EXTT10=
EXTT11=
EXTT12=
EXTT13=
EXTT14=
EXTT15=
PLAYORDER=
